<?xml version="1.0" standalone="no"?>
<!DOCTYPE svg PUBLIC "-//W3C//DTD SVG 20010904//EN"
 "http://www.w3.org/TR/2001/REC-SVG-20010904/DTD/svg10.dtd">
<svg version="1.0" xmlns="http://www.w3.org/2000/svg"
 width="720" height="138" viewBox="0 0 720.000000 138.000000"
 preserveAspectRatio="xMidYMid meet">

<g transform="translate(0.000000,138.000000) scale(0.100000,-0.100000)"
fill="#000000" stroke="none">
<path d="M813 1078 c-38 -28 -41 -32 -25 -44 15 -11 17 -44 20 -356 2 -189 0
-353 -3 -366 -3 -12 -14 -31 -25 -42 -20 -20 -20 -20 60 -20 l81 0 -23 31
c-23 31 -23 32 -26 430 -2 219 -6 399 -10 399 -4 -1 -26 -15 -49 -32z"/>
<path d="M2953 1078 c-38 -28 -41 -32 -25 -44 15 -11 17 -44 20 -356 2 -189 0
-353 -3 -366 -3 -12 -14 -31 -25 -42 -20 -20 -20 -20 60 -20 l81 0 -23 31
c-23 31 -23 32 -26 430 -2 219 -6 399 -10 399 -4 -1 -26 -15 -49 -32z"/>
<path d="M4935 1071 c106 -15 166 -51 216 -129 l29 -46 0 45 c0 24 3 62 7 83
l6 39 -21 -21 c-28 -28 -30 -27 -105 4 -40 17 -85 28 -127 30 l-65 3 60 -8z"/>
<path d="M76 1053 c-3 -10 -8 -36 -12 -58 l-6 -40 33 32 c19 18 51 39 71 47
42 18 163 22 173 6 4 -6 3 -178 -1 -382 -6 -342 -8 -372 -25 -389 -19 -19 -17
-19 68 -19 72 0 84 2 70 12 -34 26 -37 66 -37 429 l0 359 73 0 c84 0 142 -22
187 -71 32 -36 32 -39 9 54 l-10 37 -294 0 c-271 0 -294 -1 -299 -17z"/>
<path d="M2279 1051 c21 -21 21 -28 21 -391 0 -362 0 -370 -21 -391 l-21 -21
204 4 c186 3 207 5 253 26 63 29 93 56 116 107 34 74 19 176 -34 233 -28 31
-82 58 -132 68 l-38 7 29 15 c114 58 148 191 71 279 -58 66 -99 77 -296 81
l-173 4 21 -21z m298 -2 c67 -25 105 -86 106 -170 0 -88 -18 -112 -143 -180
-41 -22 -94 -56 -117 -76 l-43 -34 0 235 0 236 84 0 c47 0 97 -5 113 -11z m66
-383 c41 -17 91 -74 107 -122 18 -52 8 -154 -19 -198 -41 -66 -79 -81 -223
-85 l-128 -3 0 149 0 149 43 41 c78 76 150 99 220 69z"/>
<path d="M4805 1051 c-146 -67 -157 -249 -21 -351 28 -21 103 -62 166 -92 63
-30 132 -69 152 -87 122 -107 27 -261 -161 -261 -89 0 -199 77 -249 175 l-21
40 -1 -103 c0 -99 1 -102 19 -92 30 15 58 12 146 -16 92 -30 170 -29 245 4 51
22 104 73 119 115 29 75 -1 171 -70 230 -21 19 -102 67 -179 107 -86 44 -151
85 -170 106 -68 78 -44 180 54 225 23 10 34 19 26 19 -8 0 -33 -9 -55 -19z"/>
<path d="M5389 1057 c-29 -22 -39 -55 -39 -136 0 -80 0 -81 -25 -81 -14 0 -25
-4 -25 -10 0 -5 11 -10 25 -10 l25 0 0 -230 c0 -209 2 -234 20 -269 37 -73
134 -91 215 -41 42 26 42 37 -1 15 -60 -31 -130 -10 -158 49 -13 28 -16 71
-16 255 l0 221 55 0 c30 0 55 5 55 10 0 6 -25 10 -55 10 l-54 0 -3 114 c-3
103 -5 113 -19 103z"/>
<path d="M1029 827 c-35 -13 -99 -54 -99 -63 0 -2 19 6 43 19 29 15 59 22 101
22 54 0 60 -2 87 -34 37 -45 41 -78 37 -299 -3 -179 -4 -184 -27 -203 l-23
-19 82 0 81 0 -20 26 c-19 25 -21 40 -21 194 0 237 -13 292 -82 343 -33 25
-112 31 -159 14z"/>
<path d="M3197 798 c-43 -37 -46 -42 -30 -53 16 -12 19 -36 23 -197 5 -200 13
-227 73 -272 44 -32 138 -29 199 7 59 34 73 55 18 26 -88 -46 -171 -32 -207
34 -15 27 -19 67 -23 264 l-5 231 -48 -40z"/>
<path d="M5820 831 c-128 -39 -220 -158 -220 -285 0 -82 27 -145 88 -206 111
-109 261 -119 385 -25 68 52 107 136 107 231 0 62 -5 81 -33 135 -38 74 -94
121 -169 144 -55 16 -117 18 -158 6z m136 -30 c89 -41 154 -159 154 -279 -1
-113 -46 -198 -124 -233 -151 -69 -316 75 -316 275 0 187 140 303 286 237z"/>
<path d="M5864 569 l-28 -29 28 -29 29 -30 29 30 30 29 -30 29 -29 30 -29 -30z"/>
<path d="M6484 824 c-18 -8 -43 -27 -55 -41 l-24 -26 24 13 c14 7 38 9 60 6
68 -12 83 -11 95 7 28 43 -40 71 -100 41z"/>
<path d="M1567 816 c-208 -56 -266 -364 -95 -510 54 -46 132 -70 205 -63 58 6
145 48 167 81 13 21 13 21 -35 -2 -66 -33 -164 -40 -224 -18 -78 30 -129 106
-141 210 l-7 56 223 0 222 0 -7 43 c-28 172 -143 247 -308 203z m173 -19 c74
-39 102 -126 59 -181 l-20 -26 -171 0 -170 0 7 37 c28 149 175 234 295 170z"/>
<path d="M3594 799 c-22 -17 -41 -32 -43 -34 -2 -2 4 -11 13 -20 14 -14 16
-49 16 -256 l0 -239 49 36 c47 35 49 39 35 58 -11 16 -14 67 -14 253 0 128 -4
233 -9 233 -4 0 -26 -14 -47 -31z"/>
<path d="M3975 820 c-88 -22 -151 -74 -186 -153 -19 -41 -24 -69 -24 -137 0
-91 15 -133 71 -199 56 -67 182 -106 269 -82 52 14 130 63 146 92 l12 22 -28
-21 c-63 -50 -197 -66 -270 -33 -39 17 -95 72 -95 92 0 15 50 59 90 79 19 10
84 32 143 49 139 40 157 52 157 101 0 51 -12 80 -52 125 -57 65 -142 89 -233
65z m140 -20 c53 -25 75 -64 75 -130 0 -72 -35 -105 -157 -149 -56 -20 -107
-46 -132 -68 l-41 -34 -11 27 c-5 16 -13 56 -16 89 -18 191 136 336 282 265z"/>
<path d="M6321 809 c-13 -11 -30 -23 -38 -27 -11 -7 -11 -13 2 -40 14 -26 16
-66 13 -243 -3 -208 -3 -211 -27 -230 l-23 -19 83 0 c61 1 79 3 67 11 -31 17
-38 79 -38 327 0 133 -3 242 -7 242 -5 -1 -19 -10 -32 -21z"/>
<path d="M6827 816 c-208 -56 -266 -364 -95 -510 54 -46 132 -70 205 -63 58 6
145 48 167 81 13 21 13 21 -35 -2 -66 -33 -164 -40 -224 -18 -78 30 -129 106
-141 210 l-7 56 223 0 222 0 -7 43 c-28 172 -143 247 -308 203z m173 -19 c74
-39 102 -126 59 -181 l-20 -26 -171 0 -170 0 7 37 c28 149 175 234 295 170z"/>
</g>
</svg>
