<svg id="Layer_1" enable-background="new 0 0 512 512" height="512" viewBox="0 0 512 512" width="512" xmlns="http://www.w3.org/2000/svg"><g><g><path d="m152 313.333h48v50.667h-48z" fill="#353744"/></g><g><path d="m408 188h32v176h-32z" fill="#353744"/></g><g><path d="m408 188h16v176h-16z" fill="#55525b"/></g><g><circle cx="176" cy="180" fill="#55525b" r="160"/></g><g><circle cx="176" cy="180" fill="#353744" r="152"/></g><g><circle cx="176" cy="180" fill="#55525b" r="116.235"/></g><g><path d="m200 364h-48c-4.418 0-8 3.582-8 8v88c0 17.673 14.327 32 32 32 17.673 0 32-14.327 32-32v-88c0-4.418-3.582-8-8-8zm-24 112c-8.837 0-16-7.164-16-16s7.163-16 16-16 16 7.164 16 16-7.163 16-16 16z" fill="#f04b37"/></g><g><path d="m161.333 438.667c-3.682 0-6.667-2.985-6.667-6.667v-53.333c0-3.682 2.985-6.667 6.667-6.667 3.682 0 6.667 2.985 6.667 6.667v53.333c0 3.682-2.985 6.667-6.667 6.667z" fill="#ff6955"/></g><g><path d="m440 364h-32c-4.418 0-8 3.582-8 8v96c0 13.255 10.745 24 24 24s24-10.745 24-24v-96c0-4.418-3.582-8-8-8zm-16 112c-4.418 0-8-3.582-8-8s3.582-8 8-8 8 3.582 8 8-3.582 8-8 8z" fill="#f04b37"/></g><g><path d="m417.333 452c3.682 0 6.667-2.985 6.667-6.667v-66.667c0-3.682-2.985-6.667-6.667-6.667-3.682 0-6.667 2.985-6.667 6.667v66.667c.001 3.682 2.985 6.667 6.667 6.667z" fill="#ff6955"/></g><g><path d="m472 28h-96c-13.255 0-24 10.745-24 24v80c0 30.928 25.072 56 56 56h32c30.928 0 56-25.072 56-56v-80c0-13.255-10.745-24-24-24zm-80 104c0 4.418-3.582 8-8 8s-8-3.582-8-8v-72c0-4.418 3.582-8 8-8s8 3.582 8 8zm40 0c0 4.418-3.582 8-8 8s-8-3.582-8-8v-72c0-4.418 3.582-8 8-8s8 3.582 8 8zm40 0c0 4.418-3.582 8-8 8s-8-3.582-8-8v-72c0-4.418 3.582-8 8-8s8 3.582 8 8z" fill="#353744"/></g></g></svg>