<?xml version="1.0" standalone="no"?>
<!DOCTYPE svg PUBLIC "-//W3C//DTD SVG 20010904//EN"
 "http://www.w3.org/TR/2001/REC-SVG-20010904/DTD/svg10.dtd">
<svg version="1.0" xmlns="http://www.w3.org/2000/svg"
 width="96" height="96" viewBox="0 0 96 96"
 preserveAspectRatio="xMidYMid meet">

<g transform="translate(0.000000,96.000000) scale(0.100000,-0.100000)"
fill="#000000" stroke="none">
<path d="M75 591 c-45 -20 -70 -60 -70 -112 0 -42 5 -53 33 -81 28 -28 39 -33
82 -33 43 0 54 5 82 33 28 28 33 39 33 82 0 42 -5 54 -31 81 -33 33 -92 46
-129 30z"/>
<path d="M435 591 c-45 -20 -70 -60 -70 -112 0 -42 5 -53 33 -81 28 -28 39
-33 82 -33 43 0 54 5 82 33 28 28 33 39 33 82 0 42 -5 54 -31 81 -33 33 -92
46 -129 30z"/>
<path d="M795 591 c-45 -20 -70 -60 -70 -112 0 -42 5 -53 33 -81 28 -28 39
-33 82 -33 43 0 54 5 82 33 28 28 33 39 33 82 0 42 -5 54 -31 81 -33 33 -92
46 -129 30z"/>
</g>
</svg>
